<svg width="24" height="24" viewBox="0 0 24 24" fill="none" xmlns="http://www.w3.org/2000/svg">
<path d="M18.1713 18.874C17.4105 20.0106 16.6039 21.1198 15.3755 21.1381C14.1472 21.1656 13.7531 20.4139 12.3598 20.4139C10.9573 20.4139 10.5265 21.1198 9.36235 21.1656C8.16155 21.2114 7.25407 19.9556 6.48408 18.8465C4.91662 16.5824 3.71582 12.4116 5.32911 9.60668C6.12659 8.21338 7.55656 7.3334 9.10569 7.3059C10.279 7.28757 11.3973 8.10338 12.1215 8.10338C12.8364 8.10338 14.1931 7.12257 15.6139 7.26924C16.2097 7.29674 17.878 7.50756 18.9505 9.0842C18.868 9.13919 16.9613 10.2575 16.9797 12.5766C17.0072 15.3449 19.4088 16.2707 19.4363 16.2799C19.4088 16.344 19.0513 17.5998 18.1713 18.874ZM12.9373 4.20764C13.6064 3.44682 14.7156 2.86934 15.6322 2.83267C15.7514 3.90515 15.3205 4.98679 14.6789 5.75677C14.0464 6.53592 13.0014 7.14091 11.9748 7.05841C11.8373 6.00427 12.3506 4.90429 12.9373 4.20764Z" fill="#1D1B20"/>
</svg>
