<svg width="28" height="28" viewBox="0 0 28 28" fill="none" xmlns="http://www.w3.org/2000/svg">
<path d="M16.9096 4.66473H11.0787L8.16327 8.16328H4.66472C4.04614 8.16328 3.4529 8.40901 3.0155 8.84641C2.57809 9.28381 2.33236 9.87706 2.33236 10.4956V20.9913C2.33236 21.6098 2.57809 22.2031 3.0155 22.6405C3.4529 23.0779 4.04614 23.3236 4.66472 23.3236H23.3236C23.9422 23.3236 24.5354 23.0779 24.9728 22.6405C25.4102 22.2031 25.656 21.6098 25.656 20.9913V10.4956C25.656 9.87706 25.4102 9.28381 24.9728 8.84641C24.5354 8.40901 23.9422 8.16328 23.3236 8.16328H19.8251L16.9096 4.66473Z" stroke="white" stroke-width="2.33236" stroke-linecap="round" stroke-linejoin="round"/>
<path d="M13.9942 18.6589C15.9264 18.6589 17.4927 17.0925 17.4927 15.1603C17.4927 13.2282 15.9264 11.6618 13.9942 11.6618C12.062 11.6618 10.4956 13.2282 10.4956 15.1603C10.4956 17.0925 12.062 18.6589 13.9942 18.6589Z" stroke="white" stroke-width="2.33236" stroke-linecap="round" stroke-linejoin="round"/>
</svg>
