<svg width="40" height="40" viewBox="0 0 40 40" fill="none" xmlns="http://www.w3.org/2000/svg">
<path d="M16.5617 25.8333C16.4129 25.2565 16.1122 24.7302 15.691 24.309C15.2698 23.8878 14.7435 23.5871 14.1667 23.4383L3.94167 20.8017C3.76722 20.7521 3.61368 20.6471 3.50436 20.5024C3.39503 20.3577 3.33588 20.1813 3.33588 20C3.33588 19.8187 3.39503 19.6423 3.50436 19.4976C3.61368 19.3529 3.76722 19.2478 3.94167 19.1983L14.1667 16.56C14.7432 16.4113 15.2695 16.111 15.6907 15.6901C16.1119 15.2692 16.4126 14.7431 16.5617 14.1667L19.1983 3.94166C19.2473 3.76653 19.3523 3.61223 19.4972 3.50232C19.6421 3.39241 19.819 3.33292 20.0008 3.33292C20.1827 3.33292 20.3596 3.39241 20.5045 3.50232C20.6494 3.61223 20.7543 3.76653 20.8033 3.94166L23.4383 14.1667C23.5871 14.7434 23.8878 15.2698 24.309 15.691C24.7302 16.1122 25.2565 16.4129 25.8333 16.5617L36.0583 19.1967C36.2342 19.2452 36.3892 19.35 36.4997 19.4951C36.6102 19.6402 36.6701 19.8176 36.6701 20C36.6701 20.1824 36.6102 20.3598 36.4997 20.5049C36.3892 20.65 36.2342 20.7548 36.0583 20.8033L25.8333 23.4383C25.2565 23.5871 24.7302 23.8878 24.309 24.309C23.8878 24.7302 23.5871 25.2565 23.4383 25.8333L20.8017 36.0583C20.7527 36.2335 20.6477 36.3878 20.5028 36.4977C20.3579 36.6076 20.181 36.6671 19.9992 36.6671C19.8173 36.6671 19.6404 36.6076 19.4955 36.4977C19.3506 36.3878 19.2457 36.2335 19.1967 36.0583L16.5617 25.8333Z" stroke="white" stroke-width="3.33195" stroke-linecap="round" stroke-linejoin="round"/>
<path d="M33.3333 5V11.6667" stroke="white" stroke-width="3.33195" stroke-linecap="round" stroke-linejoin="round"/>
<path d="M36.6667 8.33334H30" stroke="white" stroke-width="3.33195" stroke-linecap="round" stroke-linejoin="round"/>
<path d="M6.66669 28.3333V31.6667" stroke="white" stroke-width="3.33195" stroke-linecap="round" stroke-linejoin="round"/>
<path d="M8.33333 30H5" stroke="white" stroke-width="3.33195" stroke-linecap="round" stroke-linejoin="round"/>
</svg>
